<svg width="152" height="162" viewBox="0 0 152 162" fill="none" xmlns="http://www.w3.org/2000/svg">
<mask id="mask0_1697_374" style="mask-type:alpha" maskUnits="userSpaceOnUse" x="5" y="1" width="148" height="154">
<path d="M71.6836 3.65993C79.3194 1.99729 83.1373 1.16597 86.9881 1.39507C90.8389 1.62416 94.5313 2.90229 101.916 5.45856L115.231 10.0677C120.489 11.8875 123.118 12.7975 125.5 14.1929C125.661 14.2869 125.82 14.3825 125.979 14.4797C128.333 15.9223 130.375 17.811 134.46 21.5884V21.5884C142.887 29.3817 147.1 33.2783 149.431 38.3311C149.586 38.6683 149.735 39.0085 149.877 39.3515C152.004 44.493 152.004 50.2321 152.004 61.7104V109.438C152.004 109.947 152.004 110.201 152 110.454C151.971 112.021 151.812 113.583 151.522 115.123C151.475 115.372 151.424 115.621 151.321 116.118V116.118C150.694 119.149 150.38 120.664 149.95 122.025C147.245 130.59 140.595 137.338 132.069 140.167C130.714 140.617 129.204 140.952 126.183 141.623L90.4607 149.557C88.1973 150.059 86.0053 150.842 83.9352 151.885V151.885C72.5066 157.649 58.6238 154.913 50.2362 145.245L23.8831 114.868C23.4444 114.362 23.2251 114.11 23 113.862C22.3815 113.183 21.7299 112.534 21.0475 111.919C20.7993 111.695 20.5455 111.477 20.0378 111.04V111.04C15.3131 106.979 12.9508 104.949 11.2137 102.705C6.38609 96.4688 4.41212 88.4861 5.77698 80.7188C6.2681 77.9238 7.41183 75.0263 9.69928 69.2312L20.7484 41.2393C20.7902 41.1334 20.8111 41.0804 20.8317 41.0276C21.6652 38.8906 22.233 36.6593 22.5222 34.3838C22.5294 34.3275 22.5363 34.271 22.5502 34.158V34.158C22.6244 33.5553 22.6614 33.254 22.7005 32.9807C24.3283 21.6035 32.7432 12.3764 43.9228 9.71023C44.1913 9.64619 44.488 9.58159 45.0813 9.4524L71.6836 3.65993Z" fill="#D9D9D9"/>
</mask>
<g mask="url(#mask0_1697_374)">
<g filter="url(#filter0_f_1697_374)">
<ellipse cx="9.60709" cy="88.1941" rx="69.6071" ry="101.194" fill="#F8130C">
    <animate attributeName="cx" values="9.60709; 62.6115; 155.369; 9.60709" dur="12s" repeatCount="indefinite" />
    <animate attributeName="cy" values="88.1941; 122.246; 112.848; 88.1941" dur="12s" repeatCount="indefinite" />
</ellipse>
</g>
<g filter="url(#filter1_f_1697_374)">
<circle cx="155.369" cy="112.848" r="31.0863" fill="#06BDED">
    <animate attributeName="cx" values="155.369; 158.913; 100.5; 155.369" dur="12s" repeatCount="indefinite" />
    <animate attributeName="cy" values="112.848; 84.8041; 14.5; 155.369" dur="12s" repeatCount="indefinite" />
</circle>
</g>
<g filter="url(#filter2_f_1697_374)">
<ellipse cx="158.913" cy="84.8041" rx="31.0863" ry="19.7612" fill="#44A92E">
    <animate attributeName="cx" values="158.913; 100.5; 9.60709; 158.913" dur="12s" repeatCount="indefinite" />
    <animate attributeName="cy" values="84.8041; 14.5; 88.1941; 84.8041" dur="12s" repeatCount="indefinite" />
</ellipse>
</g>
<g filter="url(#filter3_f_1697_374)">
<ellipse cx="100.5" cy="14.5" rx="43.5" ry="34.5" fill="#A9872E">
    <animate attributeName="cx" values="100.5; 9.60709;  155.369; 100.5" dur="12s" repeatCount="indefinite" />
    <animate attributeName="cy" values="14.5; 88.1941; 112.848; 14.5" dur="12s" repeatCount="indefinite" />
</ellipse>
</g>
<g filter="url(#filter4_f_1697_374)">
<circle cx="62.6115" cy="122.246" r="44.5686" fill="#FF56BB">
    <animate attributeName="cx" values="62.6115; 155.369; 25.6163; 62.6115" dur="12s" repeatCount="indefinite" />
    <animate attributeName="cy" values="122.246; 112.848; 31.0863; 122.246" dur="12s" repeatCount="indefinite" />
</circle>
</g>
<g filter="url(#filter5_f_1697_374)">
<ellipse cx="113.998" cy="119.319" rx="25.6163" ry="31.0863" fill="#004BDC">
    <animate attributeName="cx" values="25.6163; 15; 155.369; 25.6163" dur="12s" repeatCount="indefinite" />
    <animate attributeName="cy" values="31.0863; 20; 112.848; 31.0863" dur="12s" repeatCount="indefinite" />
</ellipse>
</g>
</g>
<defs>
<filter id="filter0_f_1697_374" width="256" height="256" filterUnits="userSpaceOnUse" color-interpolation-filters="sRGB">
<feFlood flood-opacity="0" result="BackgroundImageFix"/>
<feBlend mode="normal" in="SourceGraphic" in2="BackgroundImageFix" result="shape"/>
<feGaussianBlur stdDeviation="25" result="effect1_foregroundBlur_1697_374"/>
</filter>
<filter id="filter1_f_1697_374" width="256" height="256" filterUnits="userSpaceOnUse" color-interpolation-filters="sRGB">
<feFlood flood-opacity="0" result="BackgroundImageFix"/>
<feBlend mode="normal" in="SourceGraphic" in2="BackgroundImageFix" result="shape"/>
<feGaussianBlur stdDeviation="25" result="effect1_foregroundBlur_1697_374"/>
</filter>
<filter id="filter2_f_1697_374" width="256" height="256" filterUnits="userSpaceOnUse" color-interpolation-filters="sRGB">
<feFlood flood-opacity="0" result="BackgroundImageFix"/>
<feBlend mode="normal" in="SourceGraphic" in2="BackgroundImageFix" result="shape"/>
<feGaussianBlur stdDeviation="25" result="effect1_foregroundBlur_1697_374"/>
</filter>
<filter id="filter3_f_1697_374" width="256" height="256" filterUnits="userSpaceOnUse" color-interpolation-filters="sRGB">
<feFlood flood-opacity="0" result="BackgroundImageFix"/>
<feBlend mode="normal" in="SourceGraphic" in2="BackgroundImageFix" result="shape"/>
<feGaussianBlur stdDeviation="25" result="effect1_foregroundBlur_1697_374"/>
</filter>
<filter id="filter4_f_1697_374"  width="256" height="256" filterUnits="userSpaceOnUse" color-interpolation-filters="sRGB">
<feFlood flood-opacity="0" result="BackgroundImageFix"/>
<feBlend mode="normal" in="SourceGraphic" in2="BackgroundImageFix" result="shape"/>
<feGaussianBlur stdDeviation="25" result="effect1_foregroundBlur_1697_374"/>
</filter>
<filter id="filter5_f_1697_374" width="256" height="256" filterUnits="userSpaceOnUse" color-interpolation-filters="sRGB">
<feFlood flood-opacity="0" result="BackgroundImageFix"/>
<feBlend mode="normal" in="SourceGraphic" in2="BackgroundImageFix" result="shape"/>
<feGaussianBlur stdDeviation="25" result="effect1_foregroundBlur_1697_374"/>
</filter>
</defs>
</svg>
